Coordinates
version=1
nRows=37
nColumns=38
inDegrees=no

Units are S.I. units (second, meters, Newtons, ...)
If the header above contains a line with 'inDegrees', this indicates whether rotational values are in degrees (yes) or radians (no).

endheader
time	pelvis_tilt	pelvis_list	pelvis_rotation	pelvis_tx	pelvis_ty	pelvis_tz	hip_flexion_r	hip_adduction_r	hip_rotation_r	knee_angle_r	ankle_angle_r	subtalar_angle_r	mtp_angle_r	hip_flexion_l	hip_adduction_l	hip_rotation_l	knee_angle_l	ankle_angle_l	subtalar_angle_l	mtp_angle_l	lumbar_extension	lumbar_bending	lumbar_rotation	arm_flex_r	arm_add_r	arm_rot_r	elbow_flex_r	pro_sup_r	wrist_flex_r	wrist_dev_r	arm_flex_l	arm_add_l	arm_rot_l	elbow_flex_l	pro_sup_l	wrist_flex_l	wrist_dev_l
0.59	3.01716	1.45357	-1.27691	0.621524	0.357693	0.930956	0.258077	-0.150516	-0.23813	0.146002	-0.143491	0	0	-0.372823	-0.0447783	-0.288047	0.284364	-0.0831748	0	0	-0.246882	-0.0295128	-0.246027	0.146271	-0.521396	1.23389	0.678292	0.343905	0	0	-0.0721545	-0.486668	-0.0314276	1.12541	1.54949	0	0
0.6	3.01131	1.45295	-1.26798	0.621852	0.36875	0.929866	0.260687	-0.147561	-0.242143	0.167438	-0.147592	0	0	-0.37866	-0.0507004	-0.288855	0.298078	-0.0814949	0	0	-0.245993	-0.0271061	-0.247951	0.147225	-0.520322	1.23652	0.676925	0.342778	0	0	-0.0717563	-0.483288	-0.02858	1.12714	1.54721	0	0
0.61	3.00452	1.44989	-1.25773	0.622187	0.379943	0.929042	0.262884	-0.143852	-0.245619	0.200692	-0.149954	0	0	-0.3862	-0.058226	-0.289609	0.313151	-0.0812797	0	0	-0.247916	-0.0237249	-0.251169	0.148977	-0.519353	1.23951	0.676808	0.340304	0	0	-0.073947	-0.479963	-0.0277731	1.13015	1.54565	0	0
0.62	2.99687	1.44598	-1.24679	0.622561	0.391379	0.928387	0.264128	-0.139384	-0.245404	0.23618	-0.150642	0	0	-0.39356	-0.0665104	-0.290437	0.330175	-0.0830406	0	0	-0.250496	-0.0198331	-0.25501	0.150917	-0.518519	1.24277	0.677401	0.337764	0	0	-0.0782424	-0.476278	-0.0285003	1.13304	1.54431	0	0
0.63	2.9904	1.44213	-1.23714	0.622986	0.403098	0.927845	0.263958	-0.134662	-0.242982	0.266228	-0.151709	0	0	-0.399812	-0.0751253	-0.291131	0.349646	-0.0866323	0	0	-0.252627	-0.0158792	-0.259284	0.152667	-0.51762	1.24677	0.678209	0.335746	0	0	-0.0840419	-0.472144	-0.0298861	1.13494	1.54341	0	0
0.64	2.98113	1.4393	-1.22475	0.623543	0.415112	0.927359	0.262178	-0.129153	-0.238456	0.285607	-0.157986	0	0	-0.403238	-0.0843427	-0.291429	0.372577	-0.0918115	0	0	-0.252979	-0.0119173	-0.263571	0.153571	-0.516387	1.25103	0.678867	0.333993	0	0	-0.0910481	-0.467636	-0.0312548	1.1355	1.5432	0	0
0.65	2.86786	1.40354	-1.10212	0.622134	0.425276	0.932372	0.220459	-0.085651	-0.294815	0.35976	-0.094379	0	0	-0.428803	-0.121974	-0.292145	0.394743	-0.111269	0	0	-0.287046	0.0281137	-0.266876	0.169664	-0.512281	1.26629	0.662888	0.331507	0	0	-0.0797834	-0.449294	-0.0334989	1.11877	1.55327	0	0
0.66	2.85493	1.4015	-1.08613	0.622845	0.437765	0.93214	0.218264	-0.0792942	-0.293788	0.370667	-0.111261	0	0	-0.426725	-0.132829	-0.291042	0.425454	-0.11999	0	0	-0.285264	0.0330391	-0.269983	0.168077	-0.51178	1.26885	0.665315	0.32842	0	0	-0.0877159	-0.443349	-0.0348838	1.11612	1.55519	0	0
0.67	2.8371	1.40113	-1.06549	0.623575	0.45049	0.931941	0.217077	-0.0730169	-0.294815	0.37916	-0.139709	0	0	-0.420631	-0.143927	-0.289124	0.460102	-0.131496	0	0	-0.280564	0.0379446	-0.272557	0.16543	-0.511103	1.27186	0.666978	0.324425	0	0	-0.0959115	-0.436627	-0.0354689	1.11086	1.55803	0	0
0.68	2.81822	1.40034	-1.04456	0.624279	0.463303	0.931934	0.214285	-0.0660401	-0.295382	0.388339	-0.160637	0	0	-0.413176	-0.155221	-0.287471	0.498032	-0.143181	0	0	-0.276004	0.0432758	-0.274109	0.162259	-0.510653	1.27426	0.668438	0.321478	0	0	-0.104309	-0.429379	-0.0356797	1.10461	1.56074	0	0
0.69	2.79779	1.39919	-1.02303	0.624971	0.476139	0.932133	0.21049	-0.05868	-0.290083	0.399967	-0.17512	0	0	-0.403586	-0.166543	-0.285402	0.539973	-0.156917	0	0	-0.271436	0.0490941	-0.274663	0.15907	-0.510404	1.27703	0.66969	0.318805	0	0	-0.112679	-0.421186	-0.0360345	1.09686	1.5633	0	0
0.7	2.78193	1.3964	-1.0067	0.625651	0.48892	0.932597	0.208897	-0.0519604	-0.288853	0.423926	-0.181313	0	0	-0.39311	-0.177765	-0.282482	0.586202	-0.172791	0	0	-0.26878	0.0549417	-0.274689	0.156053	-0.510729	1.27914	0.672115	0.315563	0	0	-0.121478	-0.41285	-0.0367896	1.08894	1.56679	0	0
0.71	2.76314	1.39467	-0.989456	0.62657	0.501512	0.933117	0.207878	-0.0454342	-0.270509	0.447343	-0.179341	0	0	-0.378076	-0.188373	-0.278437	0.637513	-0.19077	0	0	-0.265245	0.0602209	-0.273043	0.152828	-0.511054	1.27959	0.675169	0.3109	0	0	-0.130317	-0.404131	-0.0383313	1.08034	1.5708	0	0
0.72	2.74818	1.38994	-0.974934	0.627356	0.514029	0.934074	0.20428	-0.0380268	-0.274519	0.474366	-0.169981	0	0	-0.363213	-0.200871	-0.273019	0.691199	-0.213764	0	0	-0.264589	0.0670524	-0.271889	0.15	-0.512048	1.28023	0.679228	0.30534	0	0	-0.138547	-0.395385	-0.0391987	1.07105	1.5708	0	0
0.73	2.72723	1.38438	-0.955743	0.628354	0.526161	0.935199	0.196106	-0.0280519	-0.270531	0.488755	-0.16304	0	0	-0.345133	-0.214769	-0.266194	0.748693	-0.235664	0	0	-0.265155	0.0751423	-0.269414	0.148398	-0.512756	1.28074	0.682914	0.301236	0	0	-0.146355	-0.386984	-0.0400333	1.06222	1.5708	0	0
0.74	2.69985	1.38015	-0.930884	0.629492	0.538077	0.936121	0.189436	-0.0181763	-0.266793	0.501115	-0.154972	0	0	-0.321893	-0.228887	-0.257449	0.809384	-0.26074	0	0	-0.263912	0.0835291	-0.266162	0.146813	-0.514293	1.28101	0.687798	0.296504	0	0	-0.154229	-0.377897	-0.0419854	1.05344	1.5708	0	0
0.75	2.67586	1.37475	-0.90825	0.630489	0.549767	0.93698	0.17785	-0.00759709	-0.271793	0.506481	-0.146896	0	0	-0.297125	-0.243248	-0.246663	0.871485	-0.282249	0	0	-0.264041	0.0923547	-0.264032	0.145881	-0.516605	1.28157	0.693862	0.292787	0	0	-0.162671	-0.369675	-0.0436669	1.04623	1.5708	0	0
0.76	2.65818	1.36844	-0.89003	0.631325	0.561285	0.937795	0.161284	0.00331449	-0.283912	0.505718	-0.138793	0	0	-0.271331	-0.257324	-0.233987	0.934136	-0.296398	0	0	-0.265488	0.100913	-0.263628	0.145166	-0.518981	1.28196	0.700322	0.290643	0	0	-0.171682	-0.362488	-0.0450408	1.04055	1.5708	0	0
0.77	2.64354	1.36376	-0.874713	0.632193	0.572603	0.938433	0.146814	0.0123082	-0.292655	0.507776	-0.128764	0	0	-0.242555	-0.26924	-0.2203	0.997195	-0.303894	0	0	-0.266002	0.107767	-0.263499	0.144082	-0.521297	1.28172	0.707224	0.288618	0	0	-0.180868	-0.355646	-0.0467948	1.03558	1.5708	0	0
0.78	2.6332	1.35988	-0.864172	0.633087	0.583706	0.93915	0.131649	0.021134	-0.297408	0.506922	-0.118381	0	0	-0.21282	-0.278933	-0.206134	1.05875	-0.307102	0	0	-0.266829	0.113016	-0.262685	0.142828	-0.52279	1.28069	0.713032	0.286418	0	0	-0.189224	-0.349522	-0.0475823	1.0304	1.5708	0	0
0.79	2.62895	1.3578	-0.860494	0.634022	0.594519	0.94	0.117596	0.02858	-0.296316	0.505027	-0.10873	0	0	-0.182124	-0.285211	-0.192588	1.11713	-0.307889	0	0	-0.267636	0.115475	-0.260838	0.141443	-0.523027	1.27855	0.717125	0.283591	0	0	-0.196257	-0.344276	-0.0470249	1.02442	1.57012	0	0
0.8	2.63084	1.35817	-0.863871	0.634845	0.604989	0.94104	0.104	0.033385	-0.29374	0.499397	-0.101567	0	0	-0.150262	-0.286768	-0.17995	1.17113	-0.302431	0	0	-0.267958	0.11489	-0.257758	0.140575	-0.521931	1.27657	0.718437	0.281193	0	0	-0.201346	-0.339232	-0.0450954	1.01687	1.56818	0	0
0.81	2.6422	1.35997	-0.876064	0.63565	0.615443	0.942278	0.0901864	0.0352778	-0.295336	0.49498	-0.0946625	0	0	-0.118977	-0.284765	-0.168311	1.21914	-0.285136	0	0	-0.26792	0.111141	-0.255333	0.139209	-0.518802	1.27449	0.717064	0.279229	0	0	-0.206163	-0.335599	-0.0416738	1.00882	1.56538	0	0
0.82	2.65939	1.36221	-0.89432	0.636424	0.625773	0.943756	0.0748221	0.0349346	-0.293287	0.490178	-0.0873906	0	0	-0.0888405	-0.280306	-0.158392	1.26116	-0.257599	0	0	-0.268299	0.105626	-0.252676	0.137473	-0.513968	1.27155	0.713411	0.276405	0	0	-0.210505	-0.332956	-0.0371397	1.00034	1.5633	0	0
0.83	2.67551	1.40073	-0.919373	0.639134	0.637387	0.940522	0.0886019	0.00684407	-0.238632	0.416398	-0.14681	0	0	-0.0282003	-0.252105	-0.154197	1.30913	-0.210559	0	0	-0.231504	0.0710265	-0.248747	0.124856	-0.506476	1.26584	0.71337	0.272986	0	0	-0.230345	-0.339679	-0.0305435	1.00307	1.55563	0	0
0.84	2.69748	1.40185	-0.942942	0.639829	0.647334	0.942304	0.0714698	0.0081099	-0.237275	0.407556	-0.14753	0	0	0.000134151	-0.246544	-0.147698	1.34046	-0.188168	0	0	-0.233356	0.0658701	-0.245063	0.124669	-0.500817	1.26483	0.707547	0.271554	0	0	-0.234035	-0.338267	-0.0242034	0.994802	1.55662	0	0
0.85	2.72429	1.40169	-0.971086	0.640415	0.65716	0.944144	0.0524121	0.00917181	-0.235846	0.398437	-0.14496	0	0	0.0264882	-0.240162	-0.141606	1.36545	-0.169991	0	0	-0.236874	0.0608121	-0.241385	0.124728	-0.495801	1.26374	0.702518	0.270172	0	0	-0.238117	-0.337425	-0.0178837	0.987851	1.55919	0	0
0.86	2.75378	1.40115	-1.00265	0.640971	0.667038	0.945924	0.0320939	0.0099002	-0.232257	0.387597	-0.141329	0	0	0.0511144	-0.232735	-0.136326	1.38337	-0.156824	0	0	-0.240642	0.0555581	-0.237276	0.124697	-0.491686	1.26268	0.698596	0.268835	0	0	-0.242672	-0.336525	-0.0121934	0.981957	1.56038	0	0
0.87	2.78306	1.40066	-1.03563	0.641561	0.677027	0.94757	0.0114743	0.0102889	-0.226106	0.375953	-0.137382	0	0	0.0741789	-0.224661	-0.13266	1.39447	-0.147147	0	0	-0.243975	0.0501144	-0.231945	0.124541	-0.488719	1.26189	0.696017	0.26764	0	0	-0.247795	-0.335643	-0.006548	0.976896	1.56024	0	0
0.88	2.81043	1.39986	-1.06713	0.642138	0.68701	0.949101	-0.00941587	0.010796	-0.22023	0.363818	-0.133622	0	0	0.0961597	-0.216779	-0.129658	1.39951	-0.139363	0	0	-0.247327	0.0449853	-0.226236	0.12438	-0.486601	1.26106	0.694481	0.266667	0	0	-0.253271	-0.335218	-0.000665194	0.972832	1.5593	0	0
0.89	2.83685	1.39883	-1.09805	0.642671	0.696898	0.950511	-0.0301149	0.0109684	-0.214933	0.351856	-0.130298	0	0	0.116977	-0.20901	-0.127621	1.39879	-0.131929	0	0	-0.250913	0.0399764	-0.220211	0.124424	-0.485164	1.26009	0.693753	0.266184	0	0	-0.258744	-0.335293	0.00555016	0.969557	1.55814	0	0
0.9	2.86285	1.39795	-1.12909	0.643161	0.706683	0.95177	-0.0494378	0.0104081	-0.210083	0.341409	-0.127393	0	0	0.136714	-0.201157	-0.127156	1.3926	-0.124761	0	0	-0.254436	0.0347494	-0.213696	0.12449	-0.484164	1.25848	0.69338	0.265839	0	0	-0.264013	-0.335768	0.012068	0.966766	1.55689	0	0
0.91	2.88776	1.39721	-1.15939	0.64361	0.716422	0.952882	-0.0687769	0.00977752	-0.204798	0.330657	-0.124015	0	0	0.15529	-0.193443	-0.128072	1.38118	-0.117917	0	0	-0.257707	0.0293661	-0.206876	0.124481	-0.483503	1.25627	0.693267	0.265737	0	0	-0.269148	-0.336476	0.0186282	0.964253	1.55534	0	0
0.92	2.9113	1.39651	-1.18863	0.644025	0.726113	0.953837	-0.0875506	0.00896494	-0.199594	0.320038	-0.120669	0	0	0.172744	-0.185896	-0.130422	1.36488	-0.111316	0	0	-0.260824	0.0239085	-0.199741	0.124483	-0.483164	1.25366	0.693503	0.265978	0	0	-0.274015	-0.337282	0.024869	0.961882	1.55387	0	0
0.93	2.93915	1.38615	-1.21902	0.645539	0.736515	0.955185	-0.106451	-0.0287244	-0.362293	0.362661	-0.13102	0	0	0.177308	-0.185898	-0.134854	1.34231	-0.104276	0	0	-0.27251	0.0190172	-0.194212	0.121868	-0.481451	1.24704	0.697144	0.266824	0	0	-0.28223	-0.345317	0.0337913	0.966546	1.54762	0	0
0.94	2.95966	1.39315	-1.25071	0.644809	0.745213	0.955363	-0.123144	0.00532288	-0.193012	0.304921	-0.113385	0	0	0.200099	-0.171217	-0.140822	1.31685	-0.0960176	0	0	-0.269826	0.0126619	-0.182155	0.123116	-0.485355	1.24149	0.698059	0.270294	0	0	-0.281201	-0.340868	0.0408365	0.957934	1.54659	0	0
0.95	2.98138	1.39186	-1.2805	0.645163	0.754634	0.955836	-0.137824	0.00240359	-0.18685	0.302176	-0.109588	0	0	0.21159	-0.164167	-0.14882	1.28529	-0.0891847	0	0	-0.273733	0.00672991	-0.173646	0.124714	-0.486143	1.23914	0.699318	0.271769	0	0	-0.285782	-0.340234	0.0428159	0.955936	1.54691	0	0
